<svg width="30" height="33" viewBox="0 0 30 33" fill="none" xmlns="http://www.w3.org/2000/svg">
<path d="M27.4275 2.81201H18.9884C18.6002 2.81201 18.2852 3.12709 18.2852 3.51529C18.2852 3.90349 18.6002 4.21857 18.9884 4.21857H27.4275C27.8157 4.21857 28.1308 3.90349 28.1308 3.51529C28.1308 3.12709 27.8157 2.81201 27.4275 2.81201Z" fill="black"/>
<path d="M27.9252 3.01888L25.1122 0.205825C24.8379 -0.0684456 24.392 -0.0684456 24.1177 0.205825C23.8435 0.480096 23.8435 0.925983 24.1177 1.20025L26.4329 3.5154L24.1163 5.83193C23.8421 6.10621 23.8421 6.55209 24.1163 6.82636C24.2542 6.96277 24.4342 7.03174 24.6143 7.03174C24.7943 7.03174 24.9743 6.96284 25.1122 6.82636L27.9252 4.01331C28.1995 3.73897 28.1995 3.29315 27.9252 3.01888Z" fill="black"/>
<path d="M9.14287 2.81201H0.703769C0.31557 2.81201 0.000488281 3.12709 0.000488281 3.51529C0.000488281 3.90349 0.31557 4.21857 0.703769 4.21857H9.14287C9.53107 4.21857 9.84615 3.90349 9.84615 3.51529C9.84615 3.12709 9.53107 2.81201 9.14287 2.81201Z" fill="black"/>
<path d="M1.69797 3.51528L4.01312 1.20013C4.28739 0.925861 4.28739 0.479974 4.01312 0.205703C3.73885 -0.0685677 3.29296 -0.0685677 3.01869 0.205703L0.205703 3.01882C-0.0685677 3.29309 -0.0685677 3.73898 0.205703 4.01325L3.01876 6.82631C3.15662 6.96272 3.33661 7.03168 3.51667 7.03168C3.69672 7.03168 3.87671 6.96278 4.01319 6.82492C4.28746 6.55065 4.28746 6.10476 4.01319 5.83049L1.69797 3.51528Z" fill="black"/>
<path d="M26.7241 14.0641C26.146 14.0641 25.6073 14.2399 25.16 14.5395C24.7747 13.4453 23.7296 12.6576 22.5046 12.6576C21.9265 12.6576 21.3878 12.8334 20.9405 13.133C20.5551 12.0388 19.5101 11.2511 18.285 11.2511C17.7731 11.2511 17.292 11.389 16.8785 11.6295V7.03156C16.8785 5.48015 15.6169 4.21851 14.0655 4.21851C12.514 4.21851 11.2524 5.48015 11.2524 7.03156V18.9869L8.8079 17.1543C7.35921 16.067 5.29723 16.2119 4.01311 17.4947C3.19029 18.3175 3.19029 19.6551 4.01311 20.4779L14.0289 30.4951C15.2244 31.6906 16.8152 32.3489 18.5059 32.3489H21.8013C26.0659 32.3489 29.5372 28.879 29.5372 24.613V16.8772C29.5372 15.3257 28.2755 14.0641 26.7241 14.0641ZM28.1307 24.613C28.1307 28.1025 25.2909 30.9423 21.8013 30.9423H18.5059C17.1894 30.9423 15.953 30.4303 15.0234 29.5006L5.00753 19.4835C4.73326 19.2092 4.73326 18.7633 5.00753 18.489C5.44353 18.0544 6.02583 17.8308 6.61096 17.8308C7.08639 17.8308 7.56458 17.9785 7.96544 18.2794L11.5338 20.956C11.7476 21.1163 12.0345 21.1403 12.2708 21.0221C12.5085 20.9026 12.659 20.6593 12.659 20.3934V7.03156C12.659 6.25655 13.2891 5.62507 14.0655 5.62507C14.8419 5.62507 15.472 6.25661 15.472 7.03156V17.5804C15.472 17.9686 15.7871 18.2837 16.1753 18.2837C16.5635 18.2837 16.8786 17.9686 16.8786 17.5804V14.0642C16.8786 13.2892 17.5087 12.6577 18.2851 12.6577C19.0615 12.6577 19.6916 13.2892 19.6916 14.0642V17.5804C19.6916 17.9686 20.0066 18.2837 20.3948 18.2837C20.783 18.2837 21.0981 17.9686 21.0981 17.5804V15.4707C21.0981 14.6956 21.7282 14.0642 22.5046 14.0642C23.281 14.0642 23.9111 14.6957 23.9111 15.4707V17.5804C23.9111 17.9686 24.2262 18.2837 24.6144 18.2837C25.0026 18.2837 25.3177 17.9686 25.3177 17.5804V16.8772C25.3177 16.1021 25.9478 15.4707 26.7242 15.4707C27.5006 15.4707 28.1307 16.1022 28.1307 16.8772V24.613V24.613Z" fill="black"/>
</svg>
