<svg width="69" height="89" viewBox="0 0 69 89" fill="none" xmlns="http://www.w3.org/2000/svg">
<path d="M61.3381 17.885C60.0383 14.8071 59.7868 12.1036 60.3738 9.69118C61.38 8.4018 63.057 7.69471 65.0276 7.23718C63.7698 6.98762 62.5539 6.90444 61.38 7.02922C62.8055 4.36726 65.2372 2.07965 68.2559 0C61.7154 1.37257 56.0554 3.99293 53.0786 10.7726C41.5489 3.61859 26.0781 2.95311 14.9257 10.2319C11.9071 3.86815 6.37279 1.28938 0 0C3.01869 2.07965 5.45041 4.36726 6.8759 7.02922C5.74389 6.90444 4.52803 6.98762 3.31217 7.23718C5.19885 7.65311 6.83398 8.3186 7.84021 9.56639C8.4691 12.1036 8.21754 14.9319 6.75013 18.2593C-1.7609 29.531 -1.71898 47.416 7.96598 57.9807C10.4396 60.6842 13.9195 63.3046 17.2736 64.8435C22.0113 67.0063 26.8328 68.7117 32.0316 69.3356C44.9868 70.8745 36.0985 88.6763 36.0985 88.6763C59.3675 80.9816 65.363 57.1488 66.5369 54.3205V54.2789C71.5681 38.6815 68.4236 26.3284 61.3381 17.885Z" fill="#0052FF"/>
<path d="M15.3022 37.3516C15.3022 44.6304 19.5787 50.9525 25.7838 53.9472L16.9374 29.8649C15.8892 32.1525 15.3022 34.6897 15.3022 37.3516Z" fill="white"/>
<path d="M46.4129 36.4411C46.4129 34.1535 45.5743 32.5729 44.8616 31.3667C43.9392 29.8278 43.0168 28.58 43.0168 27.0411C43.0168 25.3357 44.3165 23.7552 46.1194 23.7552C46.2032 23.7552 46.2871 23.7552 46.3709 23.7552C43.0588 20.7605 38.6565 18.9304 33.835 18.9304C27.3364 18.9304 21.6344 22.2163 18.3223 27.249C18.7415 27.249 19.1608 27.2906 19.5381 27.2906C21.4667 27.2906 24.4854 27.0411 24.4854 27.0411C25.4917 26.9995 25.6174 28.4552 24.6112 28.58C24.6112 28.58 23.605 28.7048 22.473 28.7464L29.2231 48.711L33.2899 36.6074L30.397 28.7464C29.3908 28.7048 28.4684 28.58 28.4684 28.58C27.4622 28.5384 27.588 26.9995 28.5942 27.0411C28.5942 27.0411 31.6548 27.2906 33.4996 27.2906C35.4282 27.2906 38.4469 27.0411 38.4469 27.0411C39.4531 26.9995 39.5789 28.4552 38.5726 28.58C38.5726 28.58 37.5664 28.7048 36.4344 28.7464L43.1426 48.5862L44.9873 42.4305C45.8259 39.8517 46.4129 38.0216 46.4129 36.4411Z" fill="white"/>
<path d="M34.2114 38.9763L28.6352 55.0312C30.3123 55.5303 32.0732 55.7799 33.876 55.7799C36.0562 55.7799 38.1106 55.4056 40.0392 54.7401C39.9973 54.6569 39.9553 54.5737 39.9134 54.4905L34.2114 38.9763Z" fill="white"/>
<path d="M50.1849 28.4928C50.2687 29.0751 50.3106 29.699 50.3106 30.4061C50.3106 32.2778 49.9752 34.399 48.8851 37.0194L43.2251 53.2822C48.7594 50.0796 52.4489 44.1318 52.4489 37.3521C52.4489 34.1495 51.6523 31.1132 50.1849 28.4928Z" fill="white"/>
<path d="M33.8746 15.8528C21.9256 15.8528 12.1987 25.5024 12.1987 37.3564C12.1987 49.2104 21.9256 58.8599 33.8746 58.8599C45.8236 58.8599 55.5504 49.2104 55.5504 37.3564C55.5504 25.5024 45.8236 15.8528 33.8746 15.8528ZM33.8746 57.8617C22.4707 57.8617 13.205 48.6697 13.205 37.3564C13.205 26.0431 22.4707 16.851 33.8746 16.851C45.2785 16.851 54.5442 26.0431 54.5442 37.3564C54.5442 48.6697 45.2785 57.8617 33.8746 57.8617Z" fill="white"/>
</svg>
