<svg width="653" height="625" viewBox="0 0 653 625" fill="none" xmlns="http://www.w3.org/2000/svg">
<path d="M479.501 468.254C565.63 382.051 565.63 242.289 479.501 156.085C393.372 69.8823 253.73 69.8824 167.601 156.085C81.4717 242.289 81.4717 382.051 167.601 468.254C253.73 554.458 393.372 554.457 479.501 468.254Z" fill="#4655E1" fill-opacity="0.07"/>
<path opacity="0.73" d="M503.316 364.989V439.395C495.173 450.734 485.969 461.363 476.057 471.284V364.989C476.057 364.28 462.604 353.297 452.338 345.147V340.187L464.728 336.998C469.684 335.581 474.995 336.289 479.951 338.061C482.075 339.124 484.199 339.833 486.677 340.541V350.108C496.943 358.966 503.316 364.28 503.316 364.989Z" fill="#C7C8DE"/>
<path d="M9.82324 29.0977L74.6074 181.099L121.691 148.502L149.304 188.54L154.26 121.22L211.256 86.4969L9.82324 29.0977Z" fill="#4655E1"/>
<path d="M132.312 141.414L74.6077 181.098L121.691 148.501L149.304 188.538L154.26 121.218L62.9253 67.0078L132.312 141.414Z" fill="#2532B1"/>
<path d="M152.844 137.871L62.9253 67.0078L154.26 121.218L152.844 137.871Z" fill="#1D246A"/>
<path d="M150.366 207.321C150.012 204.487 149.304 201.298 148.596 198.463L153.198 197.4C153.906 200.235 154.614 203.424 155.322 206.613L150.366 207.321Z" fill="#3644CC"/>
<path d="M96.9095 310.428C90.1832 310.074 83.811 307.948 78.5009 304.405L80.9789 300.508C85.5811 303.696 91.2453 305.468 97.2635 305.822L96.9095 310.428ZM115.672 306.885L113.548 302.634C118.15 300.153 123.106 296.61 127.354 291.65L130.895 294.839C126.292 300.153 120.982 304.051 115.672 306.885ZM65.4024 289.878C62.9243 284.563 61.5083 278.894 61.5083 273.225C61.5083 272.871 61.5083 272.162 61.5083 271.808V270.745L66.1105 271.099V271.808C66.1105 272.162 66.1105 272.517 66.1105 272.871C66.1105 277.831 67.1725 282.792 69.6506 287.398L65.4024 289.878ZM243.116 288.815V284.209C249.135 284.209 255.153 283.855 261.525 283.5L261.879 288.107C255.507 288.461 249.135 288.461 243.116 288.815ZM224.708 288.107L221.876 287.752C216.211 287.398 211.255 286.689 206.299 285.626L207.007 281.02C211.609 281.729 216.565 282.438 222.23 282.792L225.062 283.146L224.708 288.107ZM280.288 285.981L279.58 281.375C285.598 280.666 291.616 279.603 297.634 278.54L298.342 283.146C292.324 284.209 286.306 285.272 280.288 285.981ZM187.89 281.375C182.58 279.603 177.27 277.123 173.022 274.643C172.314 274.288 171.606 273.934 170.898 273.225L173.376 269.328C174.084 269.682 174.792 270.036 175.5 270.391C179.748 272.871 184.704 274.997 189.661 276.768L187.89 281.375ZM141.869 279.603L137.975 277.477C140.807 272.162 143.639 266.848 145.409 261.179L149.657 262.596C147.533 268.265 145.055 273.934 141.869 279.603ZM316.751 278.894L315.689 274.288C321.353 272.871 327.371 271.454 333.389 269.682L334.805 273.934C328.433 276.06 322.415 277.477 316.751 278.894ZM352.506 268.973L351.09 264.722C356.754 262.95 362.772 260.824 368.436 258.698L369.853 262.95C364.188 265.076 358.17 266.848 352.506 268.973ZM155.321 262.596C151.073 259.407 146.471 256.218 141.515 253.738L140.099 253.029L142.223 248.777C142.931 249.132 143.285 249.486 143.993 249.486C149.303 252.321 153.905 255.864 158.153 258.698L155.321 262.596ZM72.8367 255.864L69.6506 252.675C73.5447 248.777 79.2089 245.589 86.6431 243.463L88.0592 247.715C80.9789 249.84 76.0228 252.321 72.8367 255.864ZM123.106 247.006C117.796 245.943 112.486 245.234 107.176 245.234H105.406V240.628C111.778 240.628 118.15 240.983 124.168 242.4L123.106 247.006ZM154.613 244.171L150.011 243.463C151.073 237.439 151.781 231.416 151.781 225.393H156.383C156.383 231.77 155.675 237.794 154.613 244.171Z" fill="#4655E1"/>
<path d="M387.553 256.216L385.783 251.964C388.615 250.901 391.447 249.838 394.28 248.775L396.05 253.027C393.217 254.09 390.385 255.153 387.553 256.216Z" fill="#00C8B7"/>
<path d="M578.385 352.351C576.09 353.286 573.782 352.313 572.519 350.15C571.255 347.987 572.42 345.216 574.581 343.953C599.083 330.909 617.741 309.151 627.095 282.384C628.066 280.075 630.555 278.678 632.863 279.651C635.17 280.624 636.568 283.115 635.597 285.424C625.6 314.366 605.51 338.238 578.713 352.217C578.713 352.217 578.713 352.217 578.385 352.351Z" fill="#4655E1"/>
<path d="M476.058 364.99L316.045 459.238L156.385 364.99V364.635C156.385 363.927 165.236 356.486 178.688 345.857L179.042 345.502C223.293 309.716 316.045 236.373 316.045 236.373C316.045 236.373 409.15 309.716 453.047 345.857C466.853 356.841 476.058 364.281 476.058 364.99Z" fill="#1D246A"/>
<path d="M381.891 158.068H209.487C194.618 158.068 182.582 170.115 182.582 184.996V446.127C182.582 461.009 194.618 473.055 209.487 473.055H425.788C440.657 473.055 452.693 461.009 452.693 446.127V228.577L381.891 158.068Z" fill="white"/>
<path d="M381.889 201.649C381.889 216.531 393.926 228.577 408.794 228.577H452.337L381.889 158.068V201.649Z" fill="#D1D4EE"/>
<path d="M292.325 202.357H232.851C227.541 202.357 223.292 206.609 223.292 211.924V271.449C223.292 276.764 227.541 281.016 232.851 281.016H292.325C297.635 281.016 301.883 276.764 301.883 271.449V211.924C301.883 206.609 297.635 202.357 292.325 202.357Z" fill="#3644CC"/>
<path d="M374.101 302.631H231.081C226.833 302.631 223.292 306.174 223.292 310.426C223.292 314.678 226.833 318.221 231.081 318.221H374.101C378.35 318.221 381.89 314.678 381.89 310.426C381.89 306.174 378.35 302.631 374.101 302.631Z" fill="#D1D4EE"/>
<path d="M374.101 341.25H231.081C226.833 341.25 223.292 344.793 223.292 349.045C223.292 353.297 226.833 356.84 231.081 356.84H374.101C378.35 356.84 381.89 353.297 381.89 349.045C381.89 344.439 378.35 341.25 374.101 341.25Z" fill="#D1D4EE"/>
<path d="M309.318 378.451H231.436C227.188 378.451 223.647 381.994 223.647 386.246C223.647 390.498 227.188 394.041 231.436 394.041H309.318C313.566 394.041 317.107 390.498 317.107 386.246C316.753 381.64 313.566 378.451 309.318 378.451Z" fill="#D1D4EE"/>
<path d="M476.058 364.99V518.409C476.058 529.039 467.207 537.897 456.587 537.897H175.856C165.236 537.897 156.385 529.039 156.385 518.409V364.99L316.399 459.238L476.058 364.99Z" fill="#4655E1"/>
<path d="M470.747 532.225L367.73 429.119L316.044 459.59L264.359 429.119L161.341 532.225C164.881 536.123 169.838 538.248 175.502 538.248H456.587C462.251 538.248 467.207 535.768 470.747 532.225Z" fill="#3644CC"/>
<path d="M15.1338 74.0977L36.0205 122.285C37.0825 124.765 36.0205 127.599 33.5424 128.662L32.8344 129.017C30.3563 130.08 27.5242 129.017 26.4622 126.536L6.28352 77.9952C5.22149 75.5149 6.63753 72.6804 9.11562 71.6175C11.5937 70.5545 14.4258 71.6175 15.1338 74.0977Z" fill="#4655E1"/>
<path d="M97.6185 413.174C89.1222 413.174 82.042 420.26 82.042 428.764C82.042 437.267 89.1222 444.354 97.6185 444.354C106.115 444.354 113.195 437.267 113.195 428.764C112.841 420.26 106.115 413.174 97.6185 413.174ZM97.6185 434.787C94.0784 434.787 91.2463 431.953 91.2463 428.409C91.2463 424.866 94.0784 422.032 97.6185 422.032C101.159 422.032 103.991 424.866 103.991 428.409C103.637 431.953 100.805 434.787 97.6185 434.787Z" fill="#E3E4F5"/>
<path d="M510.75 475.533C502.254 475.533 495.173 482.62 495.173 491.123C495.173 499.627 502.254 506.713 510.75 506.713C519.246 506.713 526.326 499.627 526.326 491.123C526.326 482.62 519.246 475.533 510.75 475.533ZM510.75 497.501C507.21 497.501 504.378 494.666 504.378 491.123C504.378 487.58 507.21 484.745 510.75 484.745C514.29 484.745 517.122 487.58 517.122 491.123C517.122 494.666 514.29 497.501 510.75 497.501Z" fill="#E3E4F5"/>
<path d="M636.779 236.018C630.406 236.018 625.096 241.332 625.096 247.71C625.096 254.088 630.406 259.402 636.779 259.402C643.151 259.402 648.461 254.088 648.461 247.71C648.815 241.332 643.505 236.018 636.779 236.018ZM636.779 252.67C634.301 252.67 631.822 250.545 631.822 247.71C631.822 245.23 633.947 242.75 636.779 242.75C639.257 242.75 641.735 244.875 641.735 247.71C641.735 250.19 639.611 252.67 636.779 252.67Z" fill="#E3E4F5"/>
<path d="M428.973 46.8125C422.247 46.8125 416.583 52.4816 416.583 59.2136C416.583 65.9456 422.247 71.6146 428.973 71.6146C435.699 71.6146 441.363 65.9456 441.363 59.2136C441.363 52.4816 436.053 46.8125 428.973 46.8125ZM428.973 64.5283C426.141 64.5283 424.017 62.4024 424.017 59.5679C424.017 56.7334 426.141 54.6075 428.973 54.6075C431.805 54.6075 433.929 56.7334 433.929 59.5679C433.929 62.0481 431.805 64.5283 428.973 64.5283Z" fill="#E3E4F5"/>
<path d="M29.6482 338.059C22.568 338.059 16.5498 344.082 16.5498 351.168C16.5498 358.255 22.568 364.278 29.6482 364.278C36.7285 364.278 42.7466 358.255 42.7466 351.168C42.7466 343.728 36.7285 338.059 29.6482 338.059Z" fill="#E3E4F5"/>
<path d="M556.418 381.639C551.108 381.639 546.86 385.89 546.86 391.205C546.86 396.52 551.108 400.772 556.418 400.772C561.728 400.772 565.977 396.52 565.977 391.205C565.977 385.89 561.728 381.639 556.418 381.639Z" fill="#E3E4F5"/>
<path d="M240.285 50.707C232.497 50.707 226.479 57.0847 226.479 64.5254C226.479 71.966 232.851 78.3437 240.285 78.3437C248.074 78.3437 254.092 71.966 254.092 64.5254C254.092 57.0847 247.72 50.707 240.285 50.707Z" fill="#E3E4F5"/>
<path d="M314.982 556.674C309.318 556.674 304.716 561.28 304.716 566.949C304.716 572.618 309.318 577.224 314.982 577.224C320.646 577.224 325.248 572.618 325.248 566.949C324.894 561.28 320.292 556.674 314.982 556.674Z" fill="#E3E4F5"/>
<path d="M511.812 104.562C505.086 104.562 499.775 109.877 499.775 116.609C499.775 123.341 505.086 128.656 511.812 128.656C518.538 128.656 523.848 123.341 523.848 116.609C523.494 109.877 518.184 104.562 511.812 104.562Z" fill="#E3E4F5"/>
<path d="M88.7682 210.859C92.483 210.859 95.4944 207.845 95.4944 204.127C95.4944 200.409 92.483 197.395 88.7682 197.395C85.0534 197.395 82.042 200.409 82.042 204.127C82.042 207.845 85.0534 210.859 88.7682 210.859Z" fill="#E3E4F5"/>
<path d="M641.026 176.492C634.654 176.492 629.344 181.807 629.344 188.185C629.344 194.562 634.654 199.877 641.026 199.877C647.399 199.877 652.709 194.562 652.709 188.185C652.709 181.453 647.399 176.492 641.026 176.492Z" fill="#E3E4F5"/>
<path d="M23.2765 252.67C27.3823 252.67 30.7108 249.339 30.7108 245.23C30.7108 241.12 27.3823 237.789 23.2765 237.789C19.1707 237.789 15.8423 241.12 15.8423 245.23C15.8423 249.339 19.1707 252.67 23.2765 252.67Z" fill="#E3E4F5"/>
<path d="M334.098 25.9054L338.7 21.2993C340.47 19.5278 340.47 17.0475 338.7 15.276C336.93 13.5044 334.452 13.5044 332.682 15.276L328.08 19.8821L323.478 15.276C321.708 13.5044 319.229 13.5044 317.459 15.276C315.689 17.0475 315.689 19.5278 317.459 21.2993L322.416 25.9054L317.813 30.5116C316.043 32.2831 316.043 34.7634 317.813 36.5349C319.583 38.3065 322.062 38.3065 323.832 36.5349L328.08 31.9288L332.682 36.5349C334.452 38.3065 336.93 38.3065 338.7 36.5349C340.47 34.7634 340.47 32.2831 338.7 30.5116L334.098 25.9054Z" fill="#E3E4F5"/>
<path d="M17.9661 166.569L22.5682 161.963C24.3383 160.192 24.3383 157.712 22.5682 155.94C20.7982 154.168 18.3201 154.168 16.55 155.94L11.9479 160.546L7.34574 155.94C5.57568 154.168 3.0976 154.168 1.32754 155.94C-0.442515 157.712 -0.442515 160.192 1.32754 161.963L6.28371 166.569L1.68156 171.176C-0.0885029 172.947 -0.0885029 175.427 1.68156 177.199C3.45161 178.971 5.92969 178.971 7.69975 177.199L12.3019 172.593L16.9041 177.199C18.6741 178.971 21.1522 178.971 22.9223 177.199C24.6923 175.427 24.6923 172.947 22.9223 171.176L17.9661 166.569Z" fill="#E3E4F5"/>
<path d="M565.622 450.376L569.517 446.478C570.933 445.061 570.933 442.935 569.517 441.518C568.1 440.101 565.976 440.101 564.56 441.518L560.666 445.415L556.772 441.518C555.356 440.101 553.232 440.101 551.816 441.518C550.4 442.935 550.4 445.061 551.816 446.478L555.71 450.376L551.816 454.273C550.4 455.691 550.4 457.817 551.816 459.234C553.232 460.651 555.356 460.651 556.772 459.234L560.666 455.336L564.56 459.234C565.976 460.651 568.1 460.651 569.517 459.234C570.933 457.817 570.933 455.691 569.517 454.273L565.622 450.376Z" fill="#E3E4F5"/>
<path d="M609.979 117.893C605.699 107.758 604.87 98.8556 606.803 90.9118C610.117 86.6661 615.639 84.3377 622.128 82.8311C617.986 82.0094 613.982 81.7354 610.117 82.1463C614.811 73.3808 622.818 65.848 632.758 59C611.221 63.5197 592.583 72.1482 582.781 94.4728C544.815 70.9156 493.872 68.7242 457.149 92.6923C447.208 71.7373 428.985 63.2458 408 59C417.94 65.848 425.948 73.3808 430.641 82.1463C426.914 81.7354 422.91 82.0094 418.907 82.8311C425.119 84.2007 430.503 86.3921 433.817 90.5009C435.888 98.8555 435.059 108.169 430.227 119.126C402.202 156.242 402.34 215.135 434.231 249.923C442.376 258.826 453.835 267.454 464.88 272.522C480.48 279.644 496.357 285.259 513.476 287.313C556.136 292.381 526.868 351 526.868 351C603.49 325.662 623.232 247.184 627.098 237.871V237.734C643.665 186.373 633.31 145.696 609.979 117.893Z" fill="#4655E1"/>
<path d="M458.391 181.989C458.391 205.957 472.473 226.775 492.906 236.636L463.775 157.336C460.324 164.869 458.391 173.223 458.391 181.989Z" fill="white"/>
<path d="M560.829 178.981C560.829 171.448 558.068 166.243 555.721 162.272C552.684 157.204 549.647 153.095 549.647 148.028C549.647 142.412 553.926 137.208 559.863 137.208C560.139 137.208 560.415 137.208 560.691 137.208C549.785 127.347 535.289 121.32 519.412 121.32C498.013 121.32 479.237 132.14 468.331 148.712C469.711 148.712 471.092 148.849 472.334 148.849C478.685 148.849 488.625 148.028 488.625 148.028C491.938 147.891 492.353 152.684 489.039 153.095C489.039 153.095 485.726 153.506 481.998 153.643L504.226 219.384L517.617 179.529L508.091 153.643C504.778 153.506 501.741 153.095 501.741 153.095C498.427 152.958 498.841 147.891 502.155 148.028C502.155 148.028 512.233 148.849 518.308 148.849C524.658 148.849 534.598 148.028 534.598 148.028C537.912 147.891 538.326 152.684 535.013 153.095C535.013 153.095 531.699 153.506 527.972 153.643L550.061 218.973L556.135 198.703C558.897 190.211 560.829 184.185 560.829 178.981Z" fill="white"/>
<path d="M520.655 187.334L502.293 240.201C507.815 241.844 513.614 242.666 519.55 242.666C526.729 242.666 533.494 241.433 539.845 239.242C539.707 238.968 539.569 238.694 539.431 238.42L520.655 187.334Z" fill="white"/>
<path d="M573.256 152.82C573.532 154.738 573.67 156.792 573.67 159.12C573.67 165.284 572.565 172.269 568.976 180.897L550.338 234.449C568.562 223.903 580.711 204.317 580.711 181.993C580.711 171.447 578.088 161.449 573.256 152.82Z" fill="white"/>
<path d="M519.55 111.184C480.204 111.184 448.174 142.958 448.174 181.992C448.174 221.026 480.204 252.801 519.55 252.801C558.897 252.801 590.926 221.026 590.926 181.992C590.926 142.958 558.897 111.184 519.55 111.184ZM519.55 249.514C481.998 249.514 451.488 219.245 451.488 181.992C451.488 144.739 481.998 114.471 519.55 114.471C557.102 114.471 587.613 144.739 587.613 181.992C587.613 219.245 557.102 249.514 519.55 249.514Z" fill="white"/>
</svg>
