<svg viewBox="0 0 16 16" fill="none" xmlns="http://www.w3.org/2000/svg">
<path d="M12.6875 4.625V1.8125C12.6875 1.31445 12.248 0.875 11.75 0.875H1.4375C0.910156 0.875 0.5 1.31445 0.5 1.8125V4.625C0.5 5.15234 0.910156 5.5625 1.4375 5.5625H11.75C12.248 5.5625 12.6875 5.15234 12.6875 4.625ZM13.625 2.75V6.5C13.625 7.02734 13.1855 7.4375 12.6875 7.4375H8C6.94531 7.4375 6.125 8.28711 6.125 9.3125V10.25C5.59766 10.25 5.1875 10.6895 5.1875 11.1875V14.9375C5.1875 15.4648 5.59766 15.875 6.125 15.875H8C8.49805 15.875 8.9375 15.4648 8.9375 14.9375V11.1875C8.9375 10.6895 8.49805 10.25 8 10.25V9.3125H12.6875C14.2402 9.3125 15.5 8.08203 15.5 6.5V4.625C15.5 3.59961 14.6504 2.75 13.625 2.75Z" fill="#061058"/>
</svg>
