<svg width="16" height="16" viewBox="0 0 16 16" fill="none" xmlns="http://www.w3.org/2000/svg">
<path fill-rule="evenodd" clip-rule="evenodd" d="M0.70711 0.7072C1.09763 0.316676 1.7308 0.316676 2.12132 0.7072L15.7071 14.293C16.0976 14.6835 16.0976 15.3167 15.7071 15.7072C15.3166 16.0977 14.6834 16.0977 14.2929 15.7072L0.70711 2.12141C0.316586 1.73089 0.316586 1.09772 0.70711 0.7072Z" fill="#1963FF"/>
<path fill-rule="evenodd" clip-rule="evenodd" d="M0.706956 15.7072C0.316431 15.3167 0.316431 14.6835 0.706956 14.293L14.2927 0.7072C14.6833 0.316676 15.3164 0.316676 15.707 0.7072C16.0975 1.09772 16.0975 1.73089 15.707 2.12141L2.12117 15.7072C1.73064 16.0977 1.09748 16.0977 0.706956 15.7072Z" fill="#1963FF"/>
</svg>
